<svg width="20" height="19" viewBox="0 0 20 19" fill="none" xmlns="http://www.w3.org/2000/svg">
<path d="M18.2658 10.0354L10.609 17.6929C10.4902 17.8117 10.3286 17.8789 10.1604 17.8789H1.95994C1.39489 17.8789 1.11163 17.1956 1.51147 16.7965C3.85315 14.4526 9.18658 9.11692 9.18658 9.11692C9.18658 9.11692 3.85241 3.78275 1.51147 1.43884C1.11144 1.03974 1.39489 0.356445 1.95994 0.356445H10.1604C10.3287 0.356445 10.4902 0.423642 10.609 0.542444L14.084 4.01738L18.2658 8.19844C18.7725 8.70595 18.7725 9.5279 18.2658 10.0354Z" fill="#00CC99"/>
<path d="M13.4701 10.0354L5.81337 17.6929C5.69457 17.8117 5.53308 17.8789 5.3649 17.8789H1.95994C1.39489 17.8789 1.11163 17.1956 1.51147 16.7965C3.85315 14.4526 9.18659 9.11692 9.18659 9.11692C9.18659 9.11692 3.85241 3.78275 1.51147 1.43884C1.11144 1.03974 1.39489 0.356445 1.95994 0.356445H5.3649C5.53308 0.356445 5.69476 0.423642 5.81356 0.542444L13.4703 8.19826C13.9771 8.70595 13.9771 9.5279 13.4701 10.0354Z" fill="#0F172A"/>
<path d="M13.4712 10.0354L5.8145 17.6929C5.6957 17.8117 5.5342 17.8789 5.36603 17.8789H3.37109C3.53927 17.8789 3.70077 17.8117 3.81957 17.6929L11.6978 9.81414C12.2045 9.30645 12.2045 8.92721 11.6978 8.41971L3.81957 0.542444C3.70077 0.423642 3.53927 0.356445 3.37109 0.356445H5.36603C5.5342 0.356445 5.6957 0.423642 5.8145 0.542444L13.4712 8.19844C13.9782 8.70595 13.9782 9.5279 13.4712 10.0354Z" fill="#00CC99"/>
<path d="M18.5199 7.94632L14.3382 3.76526L10.8633 0.290321C10.6788 0.105807 10.4234 0 10.1626 0H1.96212C1.55356 0 1.20272 0.234632 1.04643 0.612198C0.890499 0.989392 0.972918 1.40278 1.26138 1.69069C3.28527 3.71718 7.5985 8.03059 8.68479 9.11688C7.6011 10.2011 3.29901 14.5051 1.26175 16.5442C0.972918 16.8327 0.890499 17.246 1.04643 17.6231C1.20272 18.0006 1.55356 18.2352 1.96212 18.2352H10.1626C10.4234 18.2352 10.6788 18.1294 10.8633 17.9449L18.5201 10.2874C18.5201 10.2874 18.5201 10.2874 18.5201 10.2873C19.1645 9.64184 19.1645 8.59193 18.5199 7.94632ZM18.0157 9.78365L18.0159 9.78347L10.3591 17.441C10.3074 17.4927 10.2357 17.5224 10.1626 17.5224H1.96212C1.78968 17.5224 1.72174 17.3908 1.70522 17.3506C1.68851 17.3105 1.64377 17.1701 1.76573 17.0484C4.10741 14.7044 9.44085 9.36878 9.44085 9.36878C9.58007 9.22956 9.58007 9.00402 9.44085 8.8648C9.38739 8.81153 4.07994 3.50389 1.76536 1.18653C1.64377 1.06513 1.68851 0.924793 1.70522 0.884512C1.72174 0.844231 1.78968 0.712807 1.96212 0.712807H10.1626C10.2357 0.712807 10.3074 0.742508 10.3591 0.794298L13.8343 4.26942L18.0157 8.45011C18.3829 8.81784 18.3829 9.41593 18.0157 9.78365Z" fill="white"/>
</svg>
