<svg width="20" height="20" viewBox="0 0 20 20" fill="none" xmlns="http://www.w3.org/2000/svg">
<path d="M9.98043 20C8.6758 20 7.44292 19.7656 6.2818 19.2969C5.12068 18.8281 4.09654 18.1868 3.20939 17.373C2.32224 16.5592 1.59817 15.6055 1.03718 14.5117C0.463144 13.4049 0.117417 12.2201 0 10.957V10.918H8.16047V13.6328C8.16047 13.8802 8.24853 14.0951 8.42466 14.2773C8.60078 14.4596 8.81279 14.5508 9.06067 14.5508C9.19113 14.5508 9.31181 14.5247 9.4227 14.4727C9.53359 14.4206 9.62818 14.3555 9.70646 14.2773L13.3464 10.6445C13.4247 10.5664 13.4899 10.472 13.5421 10.3613C13.5943 10.2507 13.6204 10.1302 13.6204 10C13.6204 9.86979 13.5943 9.74935 13.5421 9.63867C13.4899 9.52799 13.4247 9.43359 13.3464 9.35547L9.70646 5.72266C9.62818 5.64453 9.53359 5.57943 9.4227 5.52734C9.31181 5.47526 9.19113 5.44922 9.06067 5.44922C8.81279 5.44922 8.59752 5.54036 8.41487 5.72266C8.23222 5.90495 8.1409 6.11979 8.1409 6.36719V9.08203H0C0.117417 7.80599 0.463144 6.61458 1.03718 5.50781C1.59817 4.40104 2.32551 3.44076 3.21918 2.62695C4.11285 1.81315 5.13372 1.17188 6.2818 0.703125C7.44292 0.234375 8.6758 0 9.98043 0C11.3633 0 12.6614 0.260417 13.8748 0.78125C15.0881 1.3151 16.1481 2.03451 17.0548 2.93945C17.9615 3.8444 18.6758 4.90234 19.1977 6.11328C19.7325 7.32422 20 8.61979 20 10C20 11.3802 19.7325 12.6758 19.1977 13.8867C18.6758 15.1107 17.9615 16.1751 17.0548 17.0801C16.1481 17.985 15.0881 18.6979 13.8748 19.2188C12.6614 19.7396 11.3633 20 9.98043 20Z" fill="white"/>
</svg>
