<svg width="25" height="25" viewBox="0 0 25 25" fill="none" xmlns="http://www.w3.org/2000/svg">
<path d="M22.9167 5.05204V17.4375C22.9167 18.4479 22.0938 19.375 21.0833 19.5L20.7604 19.5416C19.0521 19.7708 16.6458 20.4791 14.7083 21.2916C14.0312 21.5729 13.2812 21.0625 13.2812 20.3229V5.83329C13.2812 5.44788 13.5 5.09371 13.8438 4.90621C15.75 3.87496 18.6354 2.95829 20.5938 2.79163H20.6563C21.9063 2.79163 22.9167 3.80204 22.9167 5.05204Z" fill="#1496F8"/>
<path d="M11.1576 4.90621C9.2513 3.87496 6.36589 2.95829 4.40755 2.79163H4.33464C3.08464 2.79163 2.07422 3.80204 2.07422 5.05204V17.4375C2.07422 18.4479 2.89714 19.375 3.90755 19.5L4.23047 19.5416C5.9388 19.7708 8.34505 20.4791 10.2826 21.2916C10.9596 21.5729 11.7096 21.0625 11.7096 20.3229V5.83329C11.7096 5.43746 11.5013 5.09371 11.1576 4.90621ZM5.20964 8.06246H7.55339C7.98047 8.06246 8.33464 8.41663 8.33464 8.84371C8.33464 9.28121 7.98047 9.62496 7.55339 9.62496H5.20964C4.78255 9.62496 4.42839 9.28121 4.42839 8.84371C4.42839 8.41663 4.78255 8.06246 5.20964 8.06246ZM8.33464 12.75H5.20964C4.78255 12.75 4.42839 12.4062 4.42839 11.9687C4.42839 11.5416 4.78255 11.1875 5.20964 11.1875H8.33464C8.76172 11.1875 9.11589 11.5416 9.11589 11.9687C9.11589 12.4062 8.76172 12.75 8.33464 12.75Z" fill="#1496F8"/>
</svg>
