<svg width="25" height="25" viewBox="0 0 25 25" fill="none" xmlns="http://www.w3.org/2000/svg">
<path d="M21.9683 7.27083C21.0829 6.29167 19.6038 5.80208 17.4579 5.80208H17.2079V5.76042C17.2079 4.01042 17.2079 1.84375 13.2913 1.84375H11.7079C7.79126 1.84375 7.79126 4.02083 7.79126 5.76042V5.8125H7.54126C5.38501 5.8125 3.91626 6.30208 3.03084 7.28125C1.99959 8.42708 2.03084 9.96875 2.13501 11.0208L2.14542 11.0937L2.22705 11.9508C2.24131 12.1006 2.32197 12.2358 2.44784 12.3182C2.69658 12.4811 3.1212 12.7551 3.37459 12.8958C3.52042 12.9896 3.67667 13.0729 3.83292 13.1562C5.61417 14.1354 7.57251 14.7917 9.56209 15.1146C9.65584 16.0937 10.0829 17.2396 12.3642 17.2396C14.6454 17.2396 15.0933 16.1042 15.1663 15.0937C17.2913 14.75 19.3433 14.0104 21.1975 12.9271C21.26 12.8958 21.3017 12.8646 21.3538 12.8333C21.7696 12.5983 22.2011 12.3083 22.5939 12.0247C22.7069 11.9431 22.7792 11.8171 22.7946 11.6786L22.8121 11.5208L22.8642 11.0312C22.8746 10.9687 22.8746 10.9167 22.885 10.8437C22.9683 9.79167 22.9475 8.35417 21.9683 7.27083ZM13.635 14.4062C13.635 15.5104 13.635 15.6771 12.3538 15.6771C11.0725 15.6771 11.0725 15.4792 11.0725 14.4167V13.1042H13.635V14.4062ZM9.28084 5.80208V5.76042C9.28084 3.98958 9.28084 3.33333 11.7079 3.33333H13.2913C15.7183 3.33333 15.7183 4 15.7183 5.76042V5.8125H9.28084V5.80208Z" fill="#FFBD0F"/>
<path d="M21.7779 14.2899C22.1314 14.1215 22.5377 14.4022 22.5023 14.7922L22.125 18.948C21.9063 21.0313 21.0521 23.1563 16.4688 23.1563H8.53125C3.94792 23.1563 3.09375 21.0313 2.875 18.9584L2.51679 15.018C2.48175 14.6326 2.87957 14.3526 3.23213 14.5123C4.41409 15.0478 6.64227 16.019 8.0074 16.3744C8.17177 16.4172 8.30472 16.5348 8.37618 16.6889C9.0063 18.0477 10.3795 18.7709 12.3646 18.7709C14.3301 18.7709 15.7207 18.0199 16.3528 16.6579C16.4244 16.5037 16.5575 16.3861 16.722 16.3431C18.1716 15.964 20.5427 14.8786 21.7779 14.2899Z" fill="#FFBD0F"/>
</svg>
