<svg width="50" height="50" viewBox="0 0 50 50" fill="none" xmlns="http://www.w3.org/2000/svg">
<path d="M26.7317 41.6517C27.2033 41.7614 27.2485 42.3843 26.7903 42.5409C26.6878 42.576 26.584 42.6109 26.4791 42.6459L23.1875 43.7292C14.9166 46.3959 10.5625 44.1667 7.87498 35.8959L5.20831 27.6667C2.54165 19.3959 4.74998 15.0209 13.0208 12.3542L15.2131 11.6282C15.616 11.4948 15.9991 11.8953 15.8664 12.2984C15.6217 13.0414 15.3998 13.8517 15.1875 14.7292L13.1458 23.4584C10.8541 33.2709 14.2083 38.6876 24.0208 41.0209L26.7317 41.6517Z" fill="#FE6C3F"/>
<path d="M35.7708 6.68756L32.2916 5.87506C25.3333 4.22922 21.1875 5.58339 18.75 10.6251C18.125 11.8959 17.625 13.4376 17.2083 15.2084L15.1666 23.9376C13.125 32.6459 15.8125 36.9376 24.5 39.0001L28 39.8334C29.2083 40.1251 30.3333 40.3126 31.375 40.3959C37.875 41.0209 41.3333 37.9792 43.0833 30.4584L45.125 21.7501C47.1666 13.0417 44.5 8.72922 35.7708 6.68756ZM31.8541 27.7709C31.6666 28.4792 31.0416 28.9376 30.3333 28.9376C30.2083 28.9376 30.0833 28.9167 29.9375 28.8959L23.875 27.3542C23.0416 27.1459 22.5416 26.2917 22.75 25.4584C22.9583 24.6251 23.8125 24.1251 24.6458 24.3334L30.7083 25.8751C31.5625 26.0834 32.0625 26.9376 31.8541 27.7709ZM37.9583 20.7292C37.7708 21.4376 37.1458 21.8959 36.4375 21.8959C36.3125 21.8959 36.1875 21.8751 36.0416 21.8542L25.9375 19.2917C25.1041 19.0834 24.6041 18.2292 24.8125 17.3959C25.0208 16.5626 25.875 16.0626 26.7083 16.2709L36.8125 18.8334C37.6666 19.0209 38.1666 19.8751 37.9583 20.7292Z" fill="#FE6C3F"/>
</svg>
