<svg width="20" height="20" viewBox="0 0 20 20" fill="none" xmlns="http://www.w3.org/2000/svg">
<path d="M17.4164 8.20833L17.9081 16.45C17.9247 16.675 17.8164 16.825 17.7581 16.8917C17.6914 16.9667 17.5497 17.0833 17.3164 17.0833H15.0414L16.8414 8.20833H17.4164ZM18.3331 5L18.3247 5.01667C18.3414 5.21667 18.3247 5.425 18.2747 5.63333L12.1331 16.9083C11.9331 17.75 11.1831 18.3333 10.3164 18.3333H17.3164C18.3914 18.3333 19.2414 17.425 19.1581 16.35L18.3331 5Z" fill="#555555"/>
<path d="M9.54154 1.86683C9.62487 1.53349 9.41654 1.19183 9.0832 1.10849C8.74987 1.03349 8.4082 1.23349 8.32487 1.56683L7.9082 3.29183H9.19154L9.54154 1.86683Z" fill="#555555"/>
<path d="M15.0414 1.84147C15.1164 1.4998 14.8997 1.1748 14.5581 1.0998C14.2247 1.0248 13.8914 1.24147 13.8164 1.58313L13.4414 3.30813H14.7247L15.0414 1.84147Z" fill="#555555"/>
<path d="M18.1838 4.44154C17.9088 3.77487 17.2588 3.29987 16.4588 3.29987H14.7254L14.2588 5.4582C14.1921 5.74987 13.9338 5.94987 13.6504 5.94987C13.6088 5.94987 13.5588 5.94987 13.5171 5.9332C13.1838 5.8582 12.9671 5.52487 13.0338 5.19154L13.4421 3.29154H9.19211L8.66711 5.4582C8.60045 5.74154 8.34211 5.9332 8.05878 5.9332C8.00878 5.9332 7.95878 5.92487 7.90878 5.91654C7.57545 5.8332 7.36711 5.49987 7.45045 5.1582L7.90045 3.2832H6.20878C5.39211 3.2832 4.66711 3.81654 4.42545 4.59987L0.917113 15.8915C0.550446 17.0999 1.44211 18.3332 2.70045 18.3332H13.6504C14.5171 18.3332 15.2671 17.7499 15.4671 16.9082L18.2754 5.6332C18.3254 5.42487 18.3421 5.21654 18.3254 5.01654C18.3088 4.81654 18.2671 4.61654 18.1838 4.44154ZM12.2504 13.9582H5.58378C5.24211 13.9582 4.95878 13.6749 4.95878 13.3332C4.95878 12.9915 5.24211 12.7082 5.58378 12.7082H12.2504C12.5921 12.7082 12.8754 12.9915 12.8754 13.3332C12.8754 13.6749 12.5921 13.9582 12.2504 13.9582ZM13.0838 10.6249H6.41711C6.07545 10.6249 5.79211 10.3415 5.79211 9.99987C5.79211 9.6582 6.07545 9.37487 6.41711 9.37487H13.0838C13.4254 9.37487 13.7088 9.6582 13.7088 9.99987C13.7088 10.3415 13.4254 10.6249 13.0838 10.6249Z" fill="#555555"/>
</svg>
