<svg width="20" height="20" viewBox="0 0 20 20" fill="none" xmlns="http://www.w3.org/2000/svg">
<path d="M16.5254 7.25016L12.7504 3.47516C11.9587 2.6835 10.8671 2.2585 9.75039 2.31683L5.58372 2.51683C3.91705 2.59183 2.59205 3.91683 2.50872 5.57516L2.30872 9.74183C2.25872 10.8585 2.67539 11.9502 3.46705 12.7418L7.24205 16.5168C8.79205 18.0668 11.3087 18.0668 12.8671 16.5168L16.5254 12.8585C18.0837 11.3168 18.0837 8.80016 16.5254 7.25016ZM7.91705 10.3168C6.60039 10.3168 5.51705 9.24183 5.51705 7.91683C5.51705 6.59183 6.60039 5.51683 7.91705 5.51683C9.23372 5.51683 10.3171 6.59183 10.3171 7.91683C10.3171 9.24183 9.23372 10.3168 7.91705 10.3168ZM14.6087 11.2752L11.2754 14.6085C11.1504 14.7335 10.9921 14.7918 10.8337 14.7918C10.6754 14.7918 10.5171 14.7335 10.3921 14.6085C10.1504 14.3668 10.1504 13.9668 10.3921 13.7252L13.7254 10.3918C13.9671 10.1502 14.3671 10.1502 14.6087 10.3918C14.8504 10.6335 14.8504 11.0335 14.6087 11.2752Z" fill="#555555"/>
</svg>
