<svg width="20" height="20" viewBox="0 0 20 20" fill="none" xmlns="http://www.w3.org/2000/svg">
<path d="M15.3913 14.0253L15.7163 16.6587C15.7997 17.3503 15.058 17.8337 14.4663 17.4753L11.583 15.7587C11.383 15.642 11.333 15.392 11.4413 15.192C11.858 14.4253 12.083 13.5587 12.083 12.692C12.083 9.64199 9.46633 7.15866 6.24967 7.15866C5.59133 7.15866 4.94967 7.25866 4.34967 7.45866C4.04133 7.55866 3.74133 7.27533 3.81633 6.95866C4.57467 3.92533 7.49133 1.66699 10.9747 1.66699C15.0413 1.66699 18.333 4.74199 18.333 8.53366C18.333 10.7837 17.1747 12.7753 15.3913 14.0253Z" fill="#555555"/>
<path d="M10.8327 12.6915C10.8327 13.6832 10.466 14.5999 9.84935 15.3249C9.02435 16.3249 7.71602 16.9665 6.24935 16.9665L4.07435 18.2582C3.70768 18.4832 3.24102 18.1749 3.29102 17.7499L3.49935 16.1082C2.38268 15.3332 1.66602 14.0915 1.66602 12.6915C1.66602 11.2249 2.44935 9.9332 3.64935 9.16654C4.39102 8.6832 5.28268 8.4082 6.24935 8.4082C8.78268 8.4082 10.8327 10.3249 10.8327 12.6915Z" fill="#555555"/>
</svg>
