<svg width="22" height="22" viewBox="0 0 22 22" fill="none" xmlns="http://www.w3.org/2000/svg">
<path d="M11.621 18.2939C11.8729 18.3525 11.896 18.6823 11.6507 18.7641V18.7641L10.2023 19.2408C6.56316 20.4141 4.64732 19.4333 3.46482 15.7941L2.29149 12.1733C1.11816 8.53409 2.08982 6.60909 5.72899 5.43576L6.12466 5.30473C6.52752 5.17131 6.92118 5.57597 6.80938 5.98536C6.76587 6.14469 6.72368 6.30982 6.68232 6.48076L5.78399 10.3216C4.77566 14.6391 6.25149 17.0224 10.569 18.0491L11.621 18.2939Z" fill="url(#paint0_linear_1145_5195)"/>
<path d="M15.74 2.94247L14.2091 2.58497C11.1475 1.8608 9.32332 2.45663 8.25082 4.67497C7.97582 5.23413 7.75582 5.91247 7.57248 6.69163L6.67415 10.5325C5.77582 14.3641 6.95832 16.2525 10.7808 17.16L12.3208 17.5266C12.8525 17.655 13.3475 17.7375 13.8058 17.7741C16.6658 18.0491 18.1875 16.7108 18.9575 13.4016L19.8558 9.56997C20.7541 5.7383 19.5808 3.8408 15.74 2.94247ZM14.0166 12.2191C13.9341 12.5308 13.6591 12.7325 13.3475 12.7325C13.2925 12.7325 13.2375 12.7233 13.1733 12.7141L10.5058 12.0358C10.1391 11.9441 9.91915 11.5683 10.0108 11.2016C10.1025 10.835 10.4783 10.615 10.845 10.7066L13.5125 11.385C13.8883 11.4766 14.1083 11.8525 14.0166 12.2191ZM16.7025 9.1208C16.62 9.43247 16.345 9.63413 16.0333 9.63413C15.9783 9.63413 15.9233 9.62497 15.8591 9.6158L11.4133 8.4883C11.0466 8.39663 10.8266 8.0208 10.9183 7.65413C11.01 7.28747 11.3858 7.06747 11.7525 7.15913L16.1983 8.28663C16.5741 8.36913 16.7941 8.74497 16.7025 9.1208Z" fill="url(#paint1_linear_1145_5195)"/>
<defs>
<linearGradient id="paint0_linear_1145_5195" x1="1.82031" y1="12.3393" x2="11.5509" y2="12.3393" gradientUnits="userSpaceOnUse">
<stop stop-color="#D91334"/>
<stop offset="1" stop-color="#FB4927"/>
</linearGradient>
<linearGradient id="paint1_linear_1145_5195" x1="6.38867" y1="10.051" x2="19.0137" y2="10.051" gradientUnits="userSpaceOnUse">
<stop stop-color="#D91334"/>
<stop offset="1" stop-color="#FB4927"/>
</linearGradient>
</defs>
</svg>
