<svg width="54" height="54" viewBox="0 0 54 54" fill="none" xmlns="http://www.w3.org/2000/svg">
<path d="M49.5 10.9125V37.665C49.5 39.8475 47.7225 41.85 45.54 42.12L44.8425 42.21C41.1525 42.705 35.955 44.235 31.77 45.99C30.3075 46.5975 28.6875 45.495 28.6875 43.8975V12.6C28.6875 11.7675 29.16 11.0025 29.9025 10.5975C34.02 8.37003 40.2525 6.39003 44.4825 6.03003H44.6175C47.3175 6.03003 49.5 8.21253 49.5 10.9125Z" fill="white"/>
<path d="M24.0975 10.5975C19.98 8.37003 13.7475 6.39003 9.51754 6.03003H9.36004C6.66004 6.03003 4.47754 8.21253 4.47754 10.9125V37.665C4.47754 39.8475 6.25504 41.85 8.43754 42.12L9.13504 42.21C12.825 42.705 18.0225 44.235 22.2075 45.99C23.67 46.5975 25.29 45.495 25.29 43.8975V12.6C25.29 11.745 24.84 11.0025 24.0975 10.5975ZM11.25 17.415H16.3125C17.235 17.415 18 18.18 18 19.1025C18 20.0475 17.235 20.79 16.3125 20.79H11.25C10.3275 20.79 9.56254 20.0475 9.56254 19.1025C9.56254 18.18 10.3275 17.415 11.25 17.415ZM18 27.54H11.25C10.3275 27.54 9.56254 26.7975 9.56254 25.8525C9.56254 24.93 10.3275 24.165 11.25 24.165H18C18.9225 24.165 19.6875 24.93 19.6875 25.8525C19.6875 26.7975 18.9225 27.54 18 27.54Z" fill="white"/>
</svg>
