<svg width="60" height="60" viewBox="0 0 60 60" fill="none" xmlns="http://www.w3.org/2000/svg">
<path d="M32.3774 50.0516C32.849 50.1614 32.8959 50.7884 32.4389 50.9485C32.2221 51.0245 32.0007 51.0998 31.7749 51.175L27.8249 52.475C17.8999 55.675 12.6749 53 9.44988 43.075L6.24988 33.2C3.04988 23.275 5.69988 18.025 15.6249 14.825L18.4589 13.8865C18.8617 13.7531 19.2435 14.1531 19.1073 14.555C18.7868 15.5014 18.4991 16.5414 18.2249 17.675L15.7749 28.15C13.0249 39.925 17.0499 46.425 28.8249 49.225L32.3774 50.0516Z" fill="url(#paint0_linear_1088_832)"/>
<path d="M42.925 8.02502L38.75 7.05002C30.4 5.07502 25.425 6.70002 22.5 12.75C21.75 14.275 21.15 16.125 20.65 18.25L18.2 28.725C15.75 39.175 18.975 44.325 29.4 46.8L33.6 47.8C35.05 48.15 36.4 48.375 37.65 48.475C45.45 49.225 49.6 45.575 51.7 36.55L54.15 26.1C56.6 15.65 53.4 10.475 42.925 8.02502ZM38.225 33.325C38 34.175 37.25 34.725 36.4 34.725C36.25 34.725 36.1 34.7 35.925 34.675L28.65 32.825C27.65 32.575 27.05 31.55 27.3 30.55C27.55 29.55 28.575 28.95 29.575 29.2L36.85 31.05C37.875 31.3 38.475 32.325 38.225 33.325ZM45.55 24.875C45.325 25.725 44.575 26.275 43.725 26.275C43.575 26.275 43.425 26.25 43.25 26.225L31.125 23.15C30.125 22.9 29.525 21.875 29.775 20.875C30.025 19.875 31.05 19.275 32.05 19.525L44.175 22.6C45.2 22.825 45.8 23.85 45.55 24.875Z" fill="url(#paint1_linear_1088_832)"/>
<defs>
<linearGradient id="paint0_linear_1088_832" x1="4.96484" y1="33.6529" x2="31.5028" y2="33.6529" gradientUnits="userSpaceOnUse">
<stop stop-color="#D91334"/>
<stop offset="1" stop-color="#FB4927"/>
</linearGradient>
<linearGradient id="paint1_linear_1088_832" x1="17.4214" y1="27.412" x2="51.8532" y2="27.412" gradientUnits="userSpaceOnUse">
<stop stop-color="#D91334"/>
<stop offset="1" stop-color="#FB4927"/>
</linearGradient>
</defs>
</svg>
