<svg width="25" height="25" viewBox="0 0 25 25" fill="none" xmlns="http://www.w3.org/2000/svg">
<path d="M7.96875 21.7813C7.9375 21.7813 7.89583 21.8021 7.86458 21.8021C5.84375 20.8021 4.19792 19.1459 3.1875 17.125C3.1875 17.0938 3.20833 17.0521 3.20833 17.0209C4.47917 17.3959 5.79167 17.6771 7.09375 17.8959C7.32292 19.2084 7.59375 20.5105 7.96875 21.7813Z" fill="#FE6C3F"/>
<path d="M21.8125 17.1355C20.7812 19.2084 19.0625 20.8855 16.9688 21.8959C17.3646 20.573 17.6979 19.2396 17.9167 17.8959C19.2292 17.6771 20.5208 17.3959 21.7917 17.0209C21.7812 17.0625 21.8125 17.1042 21.8125 17.1355Z" fill="#FE6C3F"/>
<path d="M21.8958 8.03121C20.5833 7.63538 19.2604 7.31246 17.9167 7.08329C17.6979 5.73954 17.375 4.40621 16.9688 3.10413C19.125 4.13538 20.8646 5.87496 21.8958 8.03121Z" fill="#FE6C3F"/>
<path d="M7.97005 3.21875C7.59505 4.48958 7.32422 5.78125 7.10547 7.09375C5.76172 7.30208 4.42839 7.63542 3.10547 8.03125C4.11589 5.9375 5.79297 4.21875 7.86589 3.1875C7.89714 3.1875 7.9388 3.21875 7.97005 3.21875Z" fill="#FE6C3F"/>
<path d="M16.1341 6.86462C13.7174 6.59379 11.2799 6.59379 8.86328 6.86462C9.1237 5.43754 9.45703 4.01046 9.92578 2.63546C9.94661 2.55212 9.9362 2.48962 9.94661 2.40629C10.7695 2.20837 11.6133 2.08337 12.4987 2.08337C13.3737 2.08337 14.2279 2.20837 15.0404 2.40629C15.0508 2.48962 15.0508 2.55212 15.0716 2.63546C15.5404 4.02087 15.8737 5.43754 16.1341 6.86462Z" fill="#FE6C3F"/>
<path d="M6.86328 16.1355C5.42578 15.875 4.00911 15.5417 2.63411 15.073C2.55078 15.0521 2.48828 15.0625 2.40495 15.0521C2.20703 14.2292 2.08203 13.3855 2.08203 12.5C2.08203 11.625 2.20703 10.7709 2.40495 9.95837C2.48828 9.94796 2.55078 9.94796 2.63411 9.92712C4.01953 9.46879 5.42578 9.12504 6.86328 8.86462C6.60286 11.2813 6.60286 13.7188 6.86328 16.1355Z" fill="#FE6C3F"/>
<path d="M22.918 12.5C22.918 13.3855 22.793 14.2292 22.5951 15.0521C22.5117 15.0625 22.4492 15.0521 22.3659 15.073C20.9805 15.5313 19.5638 15.875 18.1367 16.1355C18.4076 13.7188 18.4076 11.2813 18.1367 8.86462C19.5638 9.12504 20.9909 9.45837 22.3659 9.92712C22.4492 9.94796 22.5117 9.95837 22.5951 9.95837C22.793 10.7813 22.918 11.625 22.918 12.5Z" fill="#FE6C3F"/>
<path d="M16.1341 18.1354C15.8737 19.5729 15.5404 20.9895 15.0716 22.3645C15.0508 22.4479 15.0508 22.5104 15.0404 22.5937C14.2279 22.7916 13.3737 22.9166 12.4987 22.9166C11.6133 22.9166 10.7695 22.7916 9.94661 22.5937C9.9362 22.5104 9.94661 22.4479 9.92578 22.3645C9.46745 20.9791 9.1237 19.5729 8.86328 18.1354C10.0716 18.2708 11.2799 18.3645 12.4987 18.3645C13.7174 18.3645 14.9362 18.2708 16.1341 18.1354Z" fill="#FE6C3F"/>
<path d="M16.4188 16.4202C13.8135 16.7489 11.1839 16.7489 8.57856 16.4202C8.24985 13.8149 8.24985 11.1852 8.57856 8.5799C11.1839 8.2512 13.8135 8.2512 16.4188 8.5799C16.7475 11.1852 16.7475 13.8149 16.4188 16.4202Z" fill="#FE6C3F"/>
</svg>
