<svg width="19" height="19" viewBox="0 0 19 19" fill="none" xmlns="http://www.w3.org/2000/svg">
<path d="M13.9498 8.51007C13.6094 8.51007 13.3402 8.23298 13.3402 7.90048C13.3402 7.60757 13.0473 6.99798 12.5565 6.46757C12.0736 5.95298 11.5432 5.65215 11.0998 5.65215C10.7594 5.65215 10.4902 5.37507 10.4902 5.04257C10.4902 4.71007 10.7673 4.43298 11.0998 4.43298C11.8915 4.43298 12.7227 4.86048 13.4511 5.6284C14.1319 6.34882 14.5673 7.2434 14.5673 7.89257C14.5673 8.23298 14.2902 8.51007 13.9498 8.51007Z" fill="white"/>
<path d="M16.8076 8.51046C16.4672 8.51046 16.198 8.23337 16.198 7.90087C16.198 5.09046 13.9101 2.81046 11.1076 2.81046C10.7672 2.81046 10.498 2.53337 10.498 2.20087C10.498 1.86837 10.7672 1.58337 11.0997 1.58337C14.583 1.58337 17.4172 4.41754 17.4172 7.90087C17.4172 8.23337 17.1401 8.51046 16.8076 8.51046Z" fill="white"/>
<path d="M9.3344 11.2496L6.74565 13.8384C6.46065 13.585 6.18357 13.3238 5.9144 13.0546C5.09898 12.2313 4.36273 11.3684 3.70565 10.4659C3.05648 9.56337 2.53398 8.66087 2.15398 7.76629C1.77398 6.86379 1.58398 6.00087 1.58398 5.17754C1.58398 4.63921 1.67898 4.12462 1.86898 3.64962C2.05898 3.16671 2.35982 2.72337 2.7794 2.32754C3.28607 1.82879 3.84023 1.58337 4.42607 1.58337C4.64773 1.58337 4.8694 1.63087 5.06732 1.72587C5.27315 1.82087 5.45523 1.96337 5.59773 2.16921L7.4344 4.75796C7.5769 4.95587 7.67982 5.13796 7.75107 5.31212C7.82232 5.47837 7.8619 5.64462 7.8619 5.79504C7.8619 5.98504 7.80648 6.17504 7.69565 6.35712C7.59273 6.53921 7.44232 6.72921 7.25232 6.91921L6.65065 7.54462C6.56357 7.63171 6.52398 7.73462 6.52398 7.86129C6.52398 7.92462 6.5319 7.98004 6.54773 8.04337C6.57148 8.10671 6.59523 8.15421 6.61107 8.20171C6.75357 8.46296 6.99898 8.80337 7.34732 9.21504C7.70357 9.62671 8.08357 10.0463 8.49523 10.4659C8.78023 10.743 9.05732 11.0121 9.3344 11.2496Z" fill="#FAB1AA"/>
<path d="M17.3925 14.5112C17.3925 14.7329 17.3529 14.9625 17.2738 15.1842C17.25 15.2475 17.2263 15.3108 17.1946 15.3742C17.06 15.6592 16.8859 15.9283 16.6563 16.1817C16.2684 16.6092 15.8409 16.9179 15.3579 17.1158C15.35 17.1158 15.3421 17.1237 15.3342 17.1237C14.8671 17.3137 14.3604 17.4167 13.8142 17.4167C13.0067 17.4167 12.1438 17.2267 11.2334 16.8387C10.3229 16.4508 9.41253 15.9283 8.51003 15.2712C8.20128 15.0417 7.89253 14.8121 7.59961 14.5667L10.1884 11.9779C10.41 12.1442 10.6079 12.2708 10.7742 12.3579C10.8138 12.3737 10.8613 12.3975 10.9167 12.4212C10.98 12.445 11.0434 12.4529 11.1146 12.4529C11.2492 12.4529 11.3521 12.4054 11.4392 12.3183L12.0409 11.7246C12.2388 11.5267 12.4288 11.3762 12.6109 11.2812C12.7929 11.1704 12.975 11.115 13.1729 11.115C13.3234 11.115 13.4817 11.1467 13.6559 11.2179C13.83 11.2892 14.0121 11.3921 14.21 11.5267L16.8304 13.3871C17.0363 13.5296 17.1788 13.6958 17.2659 13.8937C17.345 14.0917 17.3925 14.2896 17.3925 14.5112Z" fill="#FAB1AA"/>
</svg>
