<svg width="25" height="25" viewBox="0 0 25 25" fill="none" xmlns="http://www.w3.org/2000/svg">
<path d="M20.8763 7.10417L14.8763 2.90626C13.2409 1.76042 10.7305 1.82292 9.15755 3.04167L3.9388 7.11459C2.89714 7.92709 2.07422 9.59376 2.07422 10.9063V18.0938C2.07422 20.75 4.23047 22.9167 6.88672 22.9167H18.1159C20.7721 22.9167 22.9284 20.7604 22.9284 18.1042V11.0417C22.9284 9.63542 22.0221 7.90626 20.8763 7.10417ZM17.5846 13.9583C17.5846 14.3646 17.2617 14.6875 16.8555 14.6875C16.4492 14.6875 16.1263 14.3646 16.1263 13.9583V13.7708L13.293 16.6042C13.1367 16.7604 12.9284 16.8333 12.7096 16.8125C12.5013 16.7917 12.3034 16.6667 12.1888 16.4896L11.1263 14.9063L8.64714 17.3854C8.5013 17.5313 8.32422 17.5938 8.13672 17.5938C7.94922 17.5938 7.76172 17.5208 7.6263 17.3854C7.34505 17.1042 7.34505 16.6458 7.6263 16.3542L10.7305 13.25C10.8867 13.0938 11.0951 13.0208 11.3138 13.0417C11.5326 13.0625 11.7305 13.1771 11.8451 13.3646L12.9076 14.9479L15.1055 12.75H14.918C14.5117 12.75 14.1888 12.4271 14.1888 12.0208C14.1888 11.6146 14.5117 11.2917 14.918 11.2917H16.8555C16.9492 11.2917 17.043 11.3125 17.1367 11.3438C17.3138 11.4167 17.4596 11.5625 17.5326 11.7396C17.5742 11.8333 17.5846 11.9271 17.5846 12.0208V13.9583Z" fill="#FFBD0F"/>
</svg>
