<svg width="20" height="20" viewBox="0 0 20 20" fill="none" xmlns="http://www.w3.org/2000/svg">
<path d="M16.2493 6.66667C17.3999 6.66667 18.3327 5.73393 18.3327 4.58333C18.3327 3.43274 17.3999 2.5 16.2493 2.5C15.0988 2.5 14.166 3.43274 14.166 4.58333C14.166 5.73393 15.0988 6.66667 16.2493 6.66667Z" fill="#292D32"/>
<path d="M16.2493 6.66667C17.3999 6.66667 18.3327 5.73393 18.3327 4.58333C18.3327 3.43274 17.3999 2.5 16.2493 2.5C15.0988 2.5 14.166 3.43274 14.166 4.58333C14.166 5.73393 15.0988 6.66667 16.2493 6.66667Z" fill="white"/>
<path d="M17.266 7.75829C16.6827 7.94163 16.041 7.97496 15.3744 7.80829C14.2577 7.51663 13.3493 6.62496 13.041 5.50829C12.891 4.96663 12.8827 4.43329 12.9743 3.94996C13.0827 3.41663 12.7077 2.91663 12.1743 2.91663H5.83268C3.33268 2.91663 1.66602 4.16663 1.66602 7.08329V12.9166C1.66602 15.8333 3.33268 17.0833 5.83268 17.0833H14.166C16.666 17.0833 18.3327 15.8333 18.3327 12.9166V8.54996C18.3327 7.99996 17.7993 7.58329 17.266 7.75829ZM12.9327 9.29163L11.9493 10.075C11.3993 10.5166 10.6993 10.7333 9.99935 10.7333C9.29935 10.7333 8.59102 10.5166 8.04935 10.075L5.44102 7.99163C5.17435 7.77496 5.13268 7.37496 5.34102 7.10829C5.55768 6.84163 5.94935 6.79163 6.21602 7.00829L8.82435 9.09163C9.45768 9.59996 10.5327 9.59996 11.166 9.09163L12.1493 8.30829C12.416 8.09163 12.816 8.13329 13.0243 8.40829C13.241 8.67496 13.1993 9.07496 12.9327 9.29163Z" fill="#FAB1AA"/>
</svg>
