<svg width="27" height="27" viewBox="0 0 27 27" fill="none" xmlns="http://www.w3.org/2000/svg">
<path d="M3.62109 24.9082C4.00853 26.1206 5.13241 27 6.45562 27H20.5432C21.8664 27 22.9903 26.1206 23.3777 24.9082H3.62109Z" fill="white"/>
<path d="M22.65 4.33823L19.1847 0.872948C19.0418 0.729985 18.8872 0.60395 18.7227 0.494263V4.7813C18.7227 4.87886 18.8023 4.95802 18.8999 4.95802H23.1263C22.9976 4.73379 22.8378 4.52602 22.65 4.33823Z" fill="white"/>
<path d="M23.5224 6.54028H18.8999C17.9295 6.54028 17.1404 5.75121 17.1404 4.78127V0.00105469C17.1198 0 17.0987 0 17.0782 0H6.45553C4.81306 0 3.47656 1.33655 3.47656 2.97949V11.1058H23.5225L23.5224 6.54028Z" fill="white"/>
<path d="M13.5283 16.184H12.8047V19.9155H13.5283C14.016 19.9155 14.2599 19.6446 14.2599 19.1025V16.997C14.2599 16.4551 14.016 16.184 13.5283 16.184Z" fill="white"/>
<path d="M8.98452 16.184H8.17969V17.8993H8.98452C9.47231 17.8993 9.71626 17.6284 9.71626 17.0863V16.9969C9.71616 16.4551 9.47226 16.184 8.98452 16.184Z" fill="white"/>
<path d="M23.6257 12.6881H3.3739C2.2717 12.6881 1.375 13.5848 1.375 14.687V21.3269C1.375 22.4291 2.2717 23.3258 3.3739 23.3258H23.6257C24.7279 23.3258 25.6246 22.4291 25.6246 21.3269V14.687C25.6246 13.5848 24.7279 12.6881 23.6257 12.6881ZM10.9838 16.9888C10.9838 17.6338 10.8008 18.1094 10.435 18.4155C10.0692 18.7218 9.58543 18.8749 8.98383 18.8749H8.179V20.6309C8.179 20.7556 8.11661 20.8518 7.992 20.9195C7.86729 20.9873 7.71826 21.0211 7.54487 21.0211C7.37132 21.0211 7.22235 20.9873 7.09768 20.9195C6.97296 20.8518 6.91069 20.7556 6.91069 20.6309V15.4603C6.91069 15.3574 6.95398 15.268 7.04073 15.192C7.12737 15.1162 7.24117 15.0782 7.38218 15.0782H9.06504C9.64491 15.0782 10.1098 15.2286 10.4593 15.5295C10.8089 15.8303 10.9837 16.3032 10.9837 16.9481V16.9888H10.9838ZM15.5282 19.1026C15.5282 19.7639 15.3465 20.2488 14.9835 20.5578C14.6203 20.8667 14.1352 21.0212 13.5283 21.0212H12.0893C11.9267 21.0212 11.7938 20.9833 11.691 20.9074C11.588 20.8316 11.5364 20.7421 11.5364 20.6391V15.4604C11.5364 15.3575 11.5879 15.2681 11.691 15.1921C11.7938 15.1163 11.9267 15.0783 12.0893 15.0783H13.5283C14.1352 15.0783 14.6203 15.2329 14.9835 15.5418C15.3465 15.8507 15.5282 16.3359 15.5282 16.997V19.1026ZM19.9873 16.0214C19.9195 16.1299 19.8259 16.184 19.7068 16.184H17.6013V17.558H18.8288C18.9479 17.558 19.0415 17.6068 19.1093 17.7043C19.177 17.8018 19.2109 17.9185 19.2109 18.0538C19.2109 18.1786 19.1784 18.2896 19.1134 18.3872C19.0483 18.4847 18.9534 18.5335 18.8288 18.5335H17.6013V20.6309C17.6013 20.7556 17.5389 20.8518 17.4143 20.9195C17.2895 20.9873 17.1405 21.0211 16.9671 21.0211C16.7936 21.0211 16.6446 20.9873 16.5199 20.9195C16.3952 20.8518 16.3329 20.7556 16.3329 20.6309V15.4685C16.3329 15.3439 16.3871 15.2477 16.4956 15.1799C16.6039 15.1122 16.734 15.0783 16.8858 15.0783H19.7068C19.8313 15.0783 19.9263 15.1325 19.9913 15.2409C20.0564 15.3494 20.0889 15.4767 20.0889 15.623C20.0888 15.7802 20.0549 15.913 19.9873 16.0214Z" fill="white"/>
</svg>
