<svg width="25" height="25" viewBox="0 0 25 25" fill="none" xmlns="http://www.w3.org/2000/svg">
<path d="M9.3737 2.08337C6.64453 2.08337 4.42578 4.30212 4.42578 7.03129C4.42578 9.70837 6.51953 11.875 9.2487 11.9688C9.33203 11.9584 9.41536 11.9584 9.47786 11.9688C9.4987 11.9688 9.50911 11.9688 9.52995 11.9688C9.54036 11.9688 9.54036 11.9688 9.55078 11.9688C12.2174 11.875 14.3112 9.70837 14.3216 7.03129C14.3216 4.30212 12.1029 2.08337 9.3737 2.08337Z" fill="#1496F8"/>
<path d="M14.668 14.7396C11.7617 12.8021 7.02214 12.8021 4.09505 14.7396C2.77214 15.625 2.04297 16.823 2.04297 18.1042C2.04297 19.3855 2.77214 20.573 4.08464 21.448C5.54297 22.4271 7.45964 22.9167 9.3763 22.9167C11.293 22.9167 13.2096 22.4271 14.668 21.448C15.9805 20.5625 16.7096 19.375 16.7096 18.0834C16.6992 16.8021 15.9805 15.6146 14.668 14.7396Z" fill="#1496F8"/>
<path d="M20.8242 7.64586C20.9909 9.66669 19.5534 11.4375 17.5638 11.6771C17.5534 11.6771 17.5534 11.6771 17.543 11.6771H17.5117C17.4492 11.6771 17.3867 11.6771 17.3346 11.6979C16.3242 11.75 15.3971 11.4271 14.6992 10.8334C15.7721 9.87502 16.3867 8.43752 16.2617 6.87502C16.1888 6.03127 15.8971 5.26044 15.4596 4.60419C15.8555 4.40627 16.3138 4.28127 16.7826 4.23961C18.8242 4.06252 20.6471 5.58336 20.8242 7.64586Z" fill="#1496F8"/>
<path d="M22.9076 17.2812C22.8242 18.2916 22.1784 19.1666 21.0951 19.7604C20.0534 20.3333 18.7409 20.6041 17.4388 20.5729C18.1888 19.8958 18.6263 19.052 18.7096 18.1562C18.8138 16.8645 18.1992 15.625 16.9701 14.6354C16.2721 14.0833 15.4596 13.6458 14.5742 13.3229C16.8763 12.6562 19.7721 13.1041 21.5534 14.5416C22.5117 15.3125 23.0013 16.2812 22.9076 17.2812Z" fill="#1496F8"/>
</svg>
