<svg width="43" height="43" viewBox="0 0 43 43" fill="none" xmlns="http://www.w3.org/2000/svg">
<path d="M22.1621 15.9102H31.5684" stroke="url(#paint0_linear_1213_1313)" stroke-width="3" stroke-linecap="round" stroke-linejoin="round"/>
<path d="M11.4316 15.9102L12.7754 17.2539L16.8066 13.2227" stroke="url(#paint1_linear_1213_1313)" stroke-width="3" stroke-linecap="round" stroke-linejoin="round"/>
<path d="M22.1621 28.4517H31.5684" stroke="url(#paint2_linear_1213_1313)" stroke-width="3" stroke-linecap="round" stroke-linejoin="round"/>
<path d="M11.4316 28.4517L12.7754 29.7954L16.8066 25.7642" stroke="url(#paint3_linear_1213_1313)" stroke-width="3" stroke-linecap="round" stroke-linejoin="round"/>
<path d="M16.1257 39.4168H26.8757C35.834 39.4168 39.4173 35.8335 39.4173 26.8752V16.1252C39.4173 7.16683 35.834 3.5835 26.8757 3.5835H16.1257C7.16732 3.5835 3.58398 7.16683 3.58398 16.1252V26.8752C3.58398 35.8335 7.16732 39.4168 16.1257 39.4168Z" stroke="url(#paint4_linear_1213_1313)" stroke-width="3" stroke-linecap="round" stroke-linejoin="round"/>
<defs>
<linearGradient id="paint0_linear_1213_1313" x1="22.1621" y1="16.4102" x2="30.7966" y2="16.4102" gradientUnits="userSpaceOnUse">
<stop stop-color="#D91334"/>
<stop offset="1" stop-color="#FB4927"/>
</linearGradient>
<linearGradient id="paint1_linear_1213_1313" x1="11.4316" y1="15.2383" x2="16.3656" y2="15.2383" gradientUnits="userSpaceOnUse">
<stop stop-color="#D91334"/>
<stop offset="1" stop-color="#FB4927"/>
</linearGradient>
<linearGradient id="paint2_linear_1213_1313" x1="22.1621" y1="28.9517" x2="30.7966" y2="28.9517" gradientUnits="userSpaceOnUse">
<stop stop-color="#D91334"/>
<stop offset="1" stop-color="#FB4927"/>
</linearGradient>
<linearGradient id="paint3_linear_1213_1313" x1="11.4316" y1="27.7798" x2="16.3656" y2="27.7798" gradientUnits="userSpaceOnUse">
<stop stop-color="#D91334"/>
<stop offset="1" stop-color="#FB4927"/>
</linearGradient>
<linearGradient id="paint4_linear_1213_1313" x1="3.58398" y1="21.5002" x2="36.4771" y2="21.5002" gradientUnits="userSpaceOnUse">
<stop stop-color="#D91334"/>
<stop offset="1" stop-color="#FB4927"/>
</linearGradient>
</defs>
</svg>
