<svg width="43" height="43" viewBox="0 0 43 43" fill="none" xmlns="http://www.w3.org/2000/svg">
<path d="M22.3955 39.417H7.30971C5.23138 39.417 3.5293 37.7507 3.5293 35.7082V9.11988C3.5293 4.42572 7.02305 2.29363 11.3051 4.38988L19.2601 8.29572C20.9801 9.1378 22.3955 11.3774 22.3955 13.2765V39.417Z" stroke="url(#paint0_linear_1213_1317)" stroke-width="3" stroke-linecap="round" stroke-linejoin="round"/>
<path d="M39.3636 26.9828V33.7553C39.3636 37.6253 37.5719 39.4169 33.7019 39.4169H22.3965V18.6694L23.2386 18.8486L31.3011 20.6582L34.9382 21.4644C37.3032 21.984 39.2382 23.2023 39.3457 26.6423C39.3636 26.7498 39.3636 26.8574 39.3636 26.9828Z" stroke="url(#paint1_linear_1213_1317)" stroke-width="3" stroke-linecap="round" stroke-linejoin="round"/>
<path d="M9.85352 16.125H16.0706" stroke="url(#paint2_linear_1213_1317)" stroke-width="3" stroke-linecap="round" stroke-linejoin="round"/>
<path d="M9.85352 23.292H16.0706" stroke="url(#paint3_linear_1213_1317)" stroke-width="3" stroke-linecap="round" stroke-linejoin="round"/>
<path d="M31.3008 20.6582V26.4274C31.3008 28.649 29.4912 30.4586 27.2695 30.4586C25.0479 30.4586 23.2383 28.649 23.2383 26.4274V18.8486L31.3008 20.6582Z" stroke="url(#paint4_linear_1213_1317)" stroke-width="3" stroke-linecap="round" stroke-linejoin="round"/>
<path d="M39.3454 26.6424C39.2379 28.7565 37.482 30.4586 35.332 30.4586C33.1104 30.4586 31.3008 28.649 31.3008 26.4274V20.6582L34.9379 21.4645C37.3029 21.984 39.2379 23.2024 39.3454 26.6424Z" stroke="url(#paint5_linear_1213_1317)" stroke-width="3" stroke-linecap="round" stroke-linejoin="round"/>
<defs>
<linearGradient id="paint0_linear_1213_1317" x1="3.5293" y1="21.5" x2="20.8475" y2="21.5" gradientUnits="userSpaceOnUse">
<stop stop-color="#D91334"/>
<stop offset="1" stop-color="#FB4927"/>
</linearGradient>
<linearGradient id="paint1_linear_1213_1317" x1="22.3965" y1="29.0432" x2="37.9714" y2="29.0432" gradientUnits="userSpaceOnUse">
<stop stop-color="#D91334"/>
<stop offset="1" stop-color="#FB4927"/>
</linearGradient>
<linearGradient id="paint2_linear_1213_1317" x1="9.85352" y1="16.625" x2="15.5605" y2="16.625" gradientUnits="userSpaceOnUse">
<stop stop-color="#D91334"/>
<stop offset="1" stop-color="#FB4927"/>
</linearGradient>
<linearGradient id="paint3_linear_1213_1317" x1="9.85352" y1="23.792" x2="15.5605" y2="23.792" gradientUnits="userSpaceOnUse">
<stop stop-color="#D91334"/>
<stop offset="1" stop-color="#FB4927"/>
</linearGradient>
<linearGradient id="paint4_linear_1213_1317" x1="23.2383" y1="24.6536" x2="30.6392" y2="24.6536" gradientUnits="userSpaceOnUse">
<stop stop-color="#D91334"/>
<stop offset="1" stop-color="#FB4927"/>
</linearGradient>
<linearGradient id="paint5_linear_1213_1317" x1="31.3008" y1="25.5584" x2="38.6853" y2="25.5584" gradientUnits="userSpaceOnUse">
<stop stop-color="#D91334"/>
<stop offset="1" stop-color="#FB4927"/>
</linearGradient>
</defs>
</svg>
