<svg width="32" height="32" viewBox="0 0 32 32" fill="none" xmlns="http://www.w3.org/2000/svg">
<path d="M10.6677 29.3333H21.3344C26.6944 29.3333 27.6544 27.1867 27.9344 24.5733L28.9344 13.9067C29.2944 10.6533 28.3611 8 22.6677 8H9.3344C3.64107 8 2.70774 10.6533 3.06774 13.9067L4.06774 24.5733C4.34774 27.1867 5.30774 29.3333 10.6677 29.3333Z" stroke="white" stroke-width="2" stroke-miterlimit="10" stroke-linecap="round" stroke-linejoin="round"/>
<path d="M10.6641 8.00033V6.93366C10.6641 4.57366 10.6641 2.66699 14.9307 2.66699H17.0641C21.3307 2.66699 21.3307 4.57366 21.3307 6.93366V8.00033" stroke="white" stroke-width="2" stroke-miterlimit="10" stroke-linecap="round" stroke-linejoin="round"/>
<path d="M18.6693 17.3333V18.6667C18.6693 18.68 18.6693 18.68 18.6693 18.6933C18.6693 20.1467 18.6559 21.3333 16.0026 21.3333C13.3626 21.3333 13.3359 20.16 13.3359 18.7067V17.3333C13.3359 16 13.3359 16 14.6693 16H17.3359C18.6693 16 18.6693 16 18.6693 17.3333Z" stroke="white" stroke-width="2" stroke-miterlimit="10" stroke-linecap="round" stroke-linejoin="round"/>
<path d="M28.8641 14.667C25.7841 16.907 22.2641 18.2403 18.6641 18.6937" stroke="white" stroke-width="2" stroke-miterlimit="10" stroke-linecap="round" stroke-linejoin="round"/>
<path d="M3.49609 15.0264C6.49609 17.0797 9.88276 18.3197 13.3361 18.7064" stroke="white" stroke-width="2" stroke-miterlimit="10" stroke-linecap="round" stroke-linejoin="round"/>
</svg>
