<svg width="32" height="32" viewBox="0 0 32 32" fill="none" xmlns="http://www.w3.org/2000/svg">
<path d="M16.665 29.3336H5.43833C3.89167 29.3336 2.625 28.0936 2.625 26.5736V6.78697C2.625 3.29364 5.225 1.70697 8.41167 3.26697L14.3317 6.17364C15.6117 6.8003 16.665 8.46697 16.665 9.8803V29.3336Z" stroke="white" stroke-width="2" stroke-linecap="round" stroke-linejoin="round"/>
<path d="M29.2946 20.0802V25.1202C29.2946 28.0002 27.9613 29.3336 25.0813 29.3336H16.668V13.8936L17.2946 14.0269L23.2946 15.3736L26.0013 15.9736C27.7613 16.3602 29.2013 17.2669 29.2813 19.8269C29.2946 19.9069 29.2946 19.9869 29.2946 20.0802Z" stroke="white" stroke-width="2" stroke-linecap="round" stroke-linejoin="round"/>
<path d="M7.33203 12H11.9587" stroke="white" stroke-width="2" stroke-linecap="round" stroke-linejoin="round"/>
<path d="M7.33203 17.3335H11.9587" stroke="white" stroke-width="2" stroke-linecap="round" stroke-linejoin="round"/>
<path d="M23.293 15.3735V19.6669C23.293 21.3202 21.9463 22.6669 20.293 22.6669C18.6396 22.6669 17.293 21.3202 17.293 19.6669V14.0269L23.293 15.3735Z" stroke="white" stroke-width="2" stroke-linecap="round" stroke-linejoin="round"/>
<path d="M29.2796 19.8269C29.1996 21.4002 27.893 22.6669 26.293 22.6669C24.6396 22.6669 23.293 21.3202 23.293 19.6669V15.3735L25.9996 15.9735C27.7596 16.3602 29.1996 17.2669 29.2796 19.8269Z" stroke="white" stroke-width="2" stroke-linecap="round" stroke-linejoin="round"/>
</svg>
