<svg width="32" height="32" viewBox="0 0 32 32" fill="none" xmlns="http://www.w3.org/2000/svg">
<path d="M4.22656 9.91992L15.9999 16.7332L27.6932 9.95988" stroke="white" stroke-width="2" stroke-linecap="round" stroke-linejoin="round"/>
<path d="M16 28.8131V16.7197" stroke="white" stroke-width="2" stroke-linecap="round" stroke-linejoin="round"/>
<path d="M13.2408 3.3065L6.12081 7.26655C4.50748 8.15988 3.1875 10.3999 3.1875 12.2399V19.7732C3.1875 21.6132 4.50748 23.8532 6.12081 24.7465L13.2408 28.7066C14.7608 29.5466 17.2541 29.5466 18.7741 28.7066L25.8942 24.7465C27.5075 23.8532 28.8275 21.6132 28.8275 19.7732V12.2399C28.8275 10.3999 27.5075 8.15988 25.8942 7.26655L18.7741 3.3065C17.2408 2.45317 14.7608 2.45317 13.2408 3.3065Z" stroke="white" stroke-width="2" stroke-linecap="round" stroke-linejoin="round"/>
<path d="M22.6689 17.6535V12.7735L10.0156 5.4668" stroke="white" stroke-width="2" stroke-linecap="round" stroke-linejoin="round"/>
</svg>
