<svg width="32" height="32" viewBox="0 0 32 32" fill="none" xmlns="http://www.w3.org/2000/svg">
<path d="M10.668 16.2666H20.0013" stroke="white" stroke-width="2" stroke-miterlimit="10" stroke-linecap="round" stroke-linejoin="round"/>
<path d="M10.668 21.6001H16.508" stroke="white" stroke-width="2" stroke-miterlimit="10" stroke-linecap="round" stroke-linejoin="round"/>
<path d="M13.3346 7.99984H18.668C21.3346 7.99984 21.3346 6.6665 21.3346 5.33317C21.3346 2.6665 20.0013 2.6665 18.668 2.6665H13.3346C12.0013 2.6665 10.668 2.6665 10.668 5.33317C10.668 7.99984 12.0013 7.99984 13.3346 7.99984Z" stroke="white" stroke-width="2" stroke-miterlimit="10" stroke-linecap="round" stroke-linejoin="round"/>
<path d="M21.3333 5.35986C25.7733 5.59986 28 7.23986 28 13.3332V21.3332C28 26.6665 26.6667 29.3332 20 29.3332H12C5.33333 29.3332 4 26.6665 4 21.3332V13.3332C4 7.2532 6.22667 5.59986 10.6667 5.35986" stroke="white" stroke-width="2" stroke-miterlimit="10" stroke-linecap="round" stroke-linejoin="round"/>
</svg>
