<svg width="32" height="32" viewBox="0 0 32 32" fill="none" xmlns="http://www.w3.org/2000/svg">
<path d="M18.8384 15.1198C19.3584 12.9331 17.4517 11.0264 15.265 11.5464C14.2383 11.7997 13.3983 12.6397 13.145 13.6664C12.625 15.8531 14.5317 17.7597 16.7183 17.2397C17.7583 16.9864 18.5984 16.1464 18.8384 15.1198Z" stroke="white" stroke-width="2" stroke-linecap="round" stroke-linejoin="round"/>
<path d="M24.0146 22.9198C26.2946 20.7865 27.7212 17.7598 27.7212 14.3865C27.7212 7.90647 22.4679 2.6665 16.0012 2.6665C9.53457 2.6665 4.28125 7.91981 4.28125 14.3865C4.28125 17.7731 5.72125 20.8265 8.02791 22.9598" stroke="white" stroke-width="2" stroke-linecap="round" stroke-linejoin="round"/>
<path d="M10.6664 19.3997C9.43969 18.0931 8.67969 16.3331 8.67969 14.3864C8.67969 10.3464 11.9597 7.06641 15.9997 7.06641C20.0397 7.06641 23.3197 10.3464 23.3197 14.3864C23.3197 16.3331 22.5597 18.0797 21.333 19.3997" stroke="white" stroke-width="2" stroke-linecap="round" stroke-linejoin="round"/>
<path d="M13.7343 22.213L11.8143 24.5998C10.2943 26.5064 11.6409 29.3197 14.0809 29.3197H17.9076C20.3476 29.3197 21.7076 26.4931 20.1743 24.5998L18.2543 22.213C17.1076 20.7597 14.8943 20.7597 13.7343 22.213Z" stroke="white" stroke-width="2" stroke-linecap="round" stroke-linejoin="round"/>
</svg>
