<svg width="32" height="32" viewBox="0 0 32 32" fill="none" xmlns="http://www.w3.org/2000/svg">
<path d="M14.3341 22.4805V25.1872C14.3341 27.4805 12.2008 29.3338 9.57414 29.3338C6.94747 29.3338 4.80078 27.4805 4.80078 25.1872V22.4805C4.80078 24.7738 6.93414 26.4005 9.57414 26.4005C12.2008 26.4005 14.3341 24.7605 14.3341 22.4805Z" stroke="white" stroke-width="2" stroke-linecap="round" stroke-linejoin="round"/>
<path d="M14.3318 18.8135C14.3318 19.4801 14.1451 20.0935 13.8251 20.6268C13.0384 21.9201 11.4251 22.7335 9.55843 22.7335C7.69176 22.7335 6.07841 21.9068 5.29175 20.6268C4.97175 20.0935 4.78516 19.4801 4.78516 18.8135C4.78516 17.6668 5.31846 16.6401 6.17179 15.8935C7.03846 15.1335 8.22508 14.6802 9.54508 14.6802C10.8651 14.6802 12.0518 15.1468 12.9185 15.8935C13.7985 16.6268 14.3318 17.6668 14.3318 18.8135Z" stroke="white" stroke-width="2" stroke-linecap="round" stroke-linejoin="round"/>
<path d="M14.3341 18.8132V22.4798C14.3341 24.7732 12.2008 26.3998 9.57414 26.3998C6.94747 26.3998 4.80078 24.7598 4.80078 22.4798V18.8132C4.80078 16.5198 6.93414 14.6665 9.57414 14.6665C10.8941 14.6665 12.0808 15.1331 12.9475 15.8798C13.8008 16.6265 14.3341 17.6665 14.3341 18.8132Z" stroke="white" stroke-width="2" stroke-linecap="round" stroke-linejoin="round"/>
<path d="M29.3349 14.6265V17.3733C29.3349 18.1066 28.7483 18.7066 28.0016 18.7332H25.3882C23.9482 18.7332 22.6283 17.6799 22.5083 16.2399C22.4283 15.3999 22.7482 14.6132 23.3082 14.0666C23.8016 13.5599 24.4816 13.2666 25.2282 13.2666H28.0016C28.7483 13.2933 29.3349 13.8932 29.3349 14.6265Z" stroke="white" stroke-width="2" stroke-linecap="round" stroke-linejoin="round"/>
<path d="M2.66797 13.9998V11.3332C2.66797 7.7065 4.85464 5.17317 8.25464 4.7465C8.60131 4.69317 8.9613 4.6665 9.33464 4.6665H21.3346C21.6813 4.6665 22.0146 4.67982 22.3346 4.73315C25.7746 5.13315 28.0013 7.67984 28.0013 11.3332V13.2665H25.2279C24.4813 13.2665 23.8013 13.5598 23.3079 14.0665C22.7479 14.6132 22.428 15.3998 22.508 16.2398C22.628 17.6798 23.9479 18.7332 25.3879 18.7332H28.0013V20.6665C28.0013 24.6665 25.3346 27.3332 21.3346 27.3332H18.0013" stroke="white" stroke-width="2" stroke-linecap="round" stroke-linejoin="round"/>
</svg>
