<svg width="32" height="32" viewBox="0 0 32 32" fill="none" xmlns="http://www.w3.org/2000/svg">
<path d="M29.332 7.99984V11.2265C29.332 13.3332 27.9987 14.6665 25.892 14.6665H21.332V5.3465C21.332 3.8665 22.5454 2.6665 24.0254 2.6665C25.4787 2.67984 26.812 3.2665 27.772 4.2265C28.732 5.19983 29.332 6.53317 29.332 7.99984Z" stroke="white" stroke-width="2" stroke-miterlimit="10" stroke-linecap="round" stroke-linejoin="round"/>
<path d="M2.66797 9.33317V27.9998C2.66797 29.1065 3.9213 29.7332 4.8013 29.0665L7.0813 27.3598C7.61464 26.9598 8.3613 27.0132 8.8413 27.4932L11.0546 29.7198C11.5746 30.2398 12.428 30.2398 12.948 29.7198L15.188 27.4798C15.6546 27.0132 16.4013 26.9598 16.9213 27.3598L19.2013 29.0665C20.0813 29.7198 21.3346 29.0932 21.3346 27.9998V5.33317C21.3346 3.8665 22.5346 2.6665 24.0013 2.6665H9.33464H8.0013C4.0013 2.6665 2.66797 5.05317 2.66797 7.99984V9.33317Z" stroke="white" stroke-width="2" stroke-miterlimit="10" stroke-linecap="round" stroke-linejoin="round"/>
<path d="M8.35938 18.3069L15.6394 11.0269" stroke="white" stroke-width="2" stroke-linecap="round" stroke-linejoin="round"/>
<path d="M15.9015 18.0002H15.9135" stroke="white" stroke-width="2" stroke-linecap="round" stroke-linejoin="round"/>
<path d="M8.26091 11.3332H8.27288" stroke="white" stroke-width="2" stroke-linecap="round" stroke-linejoin="round"/>
</svg>
