<svg width="32" height="32" viewBox="0 0 32 32" fill="none" xmlns="http://www.w3.org/2000/svg">
<path d="M4.22656 9.92017L15.9999 16.7335L27.6932 9.96012" stroke="white" stroke-width="2" stroke-linecap="round" stroke-linejoin="round"/>
<path d="M16 28.8136V16.7202" stroke="white" stroke-width="2" stroke-linecap="round" stroke-linejoin="round"/>
<path d="M13.2408 3.30675L6.12081 7.26679C4.50748 8.16012 3.1875 10.4001 3.1875 12.2401V19.7735C3.1875 21.6135 4.50748 23.8534 6.12081 24.7468L13.2408 28.7068C14.7608 29.5468 17.2541 29.5468 18.7741 28.7068L25.8942 24.7468C27.5075 23.8534 28.8275 21.6135 28.8275 19.7735V12.2401C28.8275 10.4001 27.5075 8.16012 25.8942 7.26679L18.7741 3.30675C17.2408 2.45341 14.7608 2.45341 13.2408 3.30675Z" stroke="white" stroke-width="2" stroke-linecap="round" stroke-linejoin="round"/>
<path d="M22.667 17.6535V12.7735L10.0137 5.4668" stroke="white" stroke-width="2" stroke-linecap="round" stroke-linejoin="round"/>
</svg>
