<svg width="32" height="32" viewBox="0 0 32 32" fill="none" xmlns="http://www.w3.org/2000/svg">
<path d="M3.08031 12.0401L5.69365 15.1468C6.09365 15.6135 6.09365 16.3868 5.69365 16.8535L3.08031 19.9601C2.72031 20.6801 3.08031 21.5601 3.85365 21.8268L5.62698 22.4135C6.05365 22.5601 6.68031 22.4135 7.00031 22.0935L10.0403 19.0668C10.2536 18.8401 10.6803 18.6668 10.987 18.6668L14.787 18.6668C15.347 18.6668 15.6136 19.0801 15.4003 19.6001L12.5736 26.1468C12.1336 27.1735 12.6803 28.0135 13.8003 28.0135L15.5203 28.0135C16.4136 28.0135 17.4403 27.3468 17.787 26.5201L21.0003 19.0668C21.0936 18.8535 21.3736 18.6668 21.6136 18.6668L25.6136 18.6668C26.867 18.6668 28.347 17.7468 28.9203 16.6268C29.1203 16.2268 29.1203 15.7601 28.9203 15.3601C28.347 14.2402 26.8536 13.3201 25.6003 13.3201L21.6003 13.3201C21.3603 13.3201 21.0803 13.1335 20.987 12.9201L17.7736 5.48015C17.4403 4.65348 16.4136 3.98682 15.5203 3.98682L13.8003 3.98682C12.6803 3.98682 12.1336 4.82682 12.5736 5.85348L15.4003 12.4001C15.627 12.9068 15.347 13.3335 14.787 13.3335L10.987 13.3335C10.6803 13.3335 10.2536 13.1601 10.0403 12.9468L7.00031 9.92015C6.68031 9.60015 6.06698 9.45348 5.62698 9.60015L3.85365 10.1868C3.08031 10.4268 2.70698 11.3068 3.08031 12.0401Z" stroke="white" stroke-width="2" stroke-linecap="round" stroke-linejoin="round"/>
</svg>
