<svg width="25" height="25" viewBox="0 0 25 25" fill="none" xmlns="http://www.w3.org/2000/svg">
<path d="M17.5326 16.2917C18.2305 15.8334 19.1471 16.3334 19.1471 17.1667V18.5105C19.1471 19.8334 18.1159 21.25 16.8763 21.6667L13.5534 22.7709C12.9701 22.9688 12.0221 22.9688 11.4492 22.7709L8.1263 21.6667C6.8763 21.25 5.85547 19.8334 5.85547 18.5105V17.1563C5.85547 16.3334 6.77214 15.8334 7.45964 16.2813L9.60547 17.6771C10.4284 18.2292 11.4701 18.5 12.5117 18.5C13.5534 18.5 14.5951 18.2292 15.418 17.6771L17.5326 16.2917Z" fill="#00CC99"/>
<path d="M20.8138 6.72913L14.5742 2.63538C13.4492 1.89579 11.5951 1.89579 10.4701 2.63538L4.19922 6.72913C2.1888 8.03121 2.1888 10.9791 4.19922 12.2916L5.86589 13.375L10.4701 16.375C11.5951 17.1145 13.4492 17.1145 14.5742 16.375L19.1471 13.375L20.5742 12.4375V15.625C20.5742 16.052 20.9284 16.4062 21.3555 16.4062C21.7826 16.4062 22.1367 16.052 22.1367 15.625V10.5C22.5534 9.15621 22.1263 7.59371 20.8138 6.72913Z" fill="#00CC99"/>
</svg>
