<svg width="20" height="20" viewBox="0 0 20 20" fill="none" xmlns="http://www.w3.org/2000/svg">
<path d="M17.5674 7.14987V12.8498C17.5674 13.7832 17.0674 14.6499 16.2591 15.1249L11.3091 17.9832C10.5008 18.4499 9.50078 18.4499 8.68411 17.9832L3.73411 15.1249C2.92578 14.6582 2.42578 13.7915 2.42578 12.8498V7.14987C2.42578 6.21653 2.92578 5.34983 3.73411 4.87483L8.68411 2.0165C9.49245 1.54984 10.4924 1.54984 11.3091 2.0165L16.2591 4.87483C17.0674 5.34983 17.5674 6.2082 17.5674 7.14987Z" stroke="#02CC99" stroke-width="1.5" stroke-linecap="round" stroke-linejoin="round"/>
<path d="M10.0003 9.16651C11.0726 9.16651 11.9419 8.29719 11.9419 7.22483C11.9419 6.15248 11.0726 5.2832 10.0003 5.2832C8.92791 5.2832 8.05859 6.15248 8.05859 7.22483C8.05859 8.29719 8.92791 9.16651 10.0003 9.16651Z" stroke="#02CC99" stroke-width="1.5" stroke-linecap="round" stroke-linejoin="round"/>
<path d="M13.3327 13.8831C13.3327 12.3831 11.841 11.1665 9.99935 11.1665C8.15768 11.1665 6.66602 12.3831 6.66602 13.8831" stroke="#02CC99" stroke-width="1.5" stroke-linecap="round" stroke-linejoin="round"/>
</svg>
