<svg width="117" height="37" viewBox="0 0 117 37" fill="none" xmlns="http://www.w3.org/2000/svg">
<path d="M44.57 30.7904C42.89 30.7904 41.42 30.4104 40.16 29.6504C38.9 28.8904 37.92 27.8604 37.22 26.5604C36.52 25.2604 36.17 23.8204 36.17 22.2404C36.17 20.6004 36.52 19.1504 37.22 17.8904C37.94 16.6104 38.91 15.6004 40.13 14.8604C41.37 14.1204 42.75 13.7504 44.27 13.7504C45.55 13.7504 46.67 13.9604 47.63 14.3804C48.61 14.8004 49.44 15.3804 50.12 16.1204C50.8 16.8604 51.32 17.7104 51.68 18.6704C52.04 19.6104 52.22 20.6304 52.22 21.7304C52.22 22.0104 52.2 22.3004 52.16 22.6004C52.14 22.9004 52.09 23.1604 52.01 23.3804H39.41V20.3804H49.79L47.93 21.7904C48.11 20.8704 48.06 20.0504 47.78 19.3304C47.52 18.6104 47.08 18.0404 46.46 17.6204C45.86 17.2004 45.13 16.9904 44.27 16.9904C43.45 16.9904 42.72 17.2004 42.08 17.6204C41.44 18.0204 40.95 18.6204 40.61 19.4204C40.29 20.2004 40.17 21.1504 40.25 22.2704C40.17 23.2704 40.3 24.1604 40.64 24.9404C41 25.7004 41.52 26.2904 42.2 26.7104C42.9 27.1304 43.7 27.3404 44.6 27.3404C45.5 27.3404 46.26 27.1504 46.88 26.7704C47.52 26.3904 48.02 25.8804 48.38 25.2404L51.56 26.8004C51.24 27.5804 50.74 28.2704 50.06 28.8704C49.38 29.4704 48.57 29.9404 47.63 30.2804C46.71 30.6204 45.69 30.7904 44.57 30.7904ZM55.8591 30.4304V26.2304H59.8191V30.4304H55.8591ZM69.057 30.4304L62.637 14.1104H66.927L71.577 26.9504H69.987L74.667 14.1104H78.957L72.537 30.4304H69.057ZM79.9292 30.4304V14.1104H83.8592V30.4304H79.9292ZM79.9292 12.2804V8.08042H83.8592V12.2804H79.9292ZM92.4978 30.7904C90.7578 30.7904 89.2378 30.3804 87.9378 29.5604C86.6578 28.7204 85.7778 27.5904 85.2978 26.1704L88.2378 24.7604C88.6578 25.6804 89.2378 26.4004 89.9778 26.9204C90.7378 27.4404 91.5778 27.7004 92.4978 27.7004C93.2178 27.7004 93.7878 27.5404 94.2078 27.2204C94.6278 26.9004 94.8378 26.4804 94.8378 25.9604C94.8378 25.6404 94.7478 25.3804 94.5678 25.1804C94.4078 24.9604 94.1778 24.7804 93.8778 24.6404C93.5978 24.4804 93.2878 24.3504 92.9478 24.2504L90.2778 23.5004C88.8978 23.1004 87.8478 22.4904 87.1278 21.6704C86.4278 20.8504 86.0778 19.8804 86.0778 18.7604C86.0778 17.7604 86.3278 16.8904 86.8278 16.1504C87.3478 15.3904 88.0578 14.8004 88.9578 14.3804C89.8778 13.9604 90.9278 13.7504 92.1078 13.7504C93.6478 13.7504 95.0078 14.1204 96.1878 14.8604C97.3678 15.6004 98.2078 16.6404 98.7078 17.9804L95.7078 19.3904C95.4278 18.6504 94.9578 18.0604 94.2978 17.6204C93.6378 17.1804 92.8978 16.9604 92.0778 16.9604C91.4178 16.9604 90.8978 17.1104 90.5178 17.4104C90.1378 17.7104 89.9478 18.1004 89.9478 18.5804C89.9478 18.8804 90.0278 19.1404 90.1878 19.3604C90.3478 19.5804 90.5678 19.7604 90.8478 19.9004C91.1478 20.0404 91.4878 20.1704 91.8678 20.2904L94.4778 21.0704C95.8178 21.4704 96.8478 22.0704 97.5678 22.8704C98.3078 23.6704 98.6778 24.6504 98.6778 25.8104C98.6778 26.7904 98.4178 27.6604 97.8978 28.4204C97.3778 29.1604 96.6578 29.7404 95.7378 30.1604C94.8178 30.5804 93.7378 30.7904 92.4978 30.7904ZM105.448 30.7904C104.308 30.7904 103.318 30.6004 102.478 30.2204C101.638 29.8404 100.988 29.3004 100.528 28.6004C100.068 27.8804 99.838 27.0504 99.838 26.1104C99.838 25.2104 100.038 24.4104 100.438 23.7104C100.838 22.9904 101.458 22.3904 102.298 21.9104C103.138 21.4304 104.198 21.0904 105.478 20.8904L110.818 20.0204V23.0204L106.228 23.8004C105.448 23.9404 104.868 24.1904 104.488 24.5504C104.108 24.9104 103.918 25.3804 103.918 25.9604C103.918 26.5204 104.128 26.9704 104.548 27.3104C104.988 27.6304 105.528 27.7904 106.168 27.7904C106.988 27.7904 107.708 27.6204 108.328 27.2804C108.968 26.9204 109.458 26.4304 109.798 25.8104C110.158 25.1904 110.338 24.5104 110.338 23.7704V19.5704C110.338 18.8704 110.058 18.2904 109.498 17.8304C108.958 17.3504 108.238 17.1104 107.338 17.1104C106.498 17.1104 105.748 17.3404 105.088 17.8004C104.448 18.2404 103.978 18.8304 103.678 19.5704L100.468 18.0104C100.788 17.1504 101.288 16.4104 101.968 15.7904C102.668 15.1504 103.488 14.6504 104.428 14.2904C105.368 13.9304 106.388 13.7504 107.488 13.7504C108.828 13.7504 110.008 14.0004 111.028 14.5004C112.048 14.9804 112.838 15.6604 113.398 16.5404C113.978 17.4004 114.268 18.4104 114.268 19.5704V30.4304H110.548V27.6404L111.388 27.5804C110.968 28.2804 110.468 28.8704 109.888 29.3504C109.308 29.8104 108.648 30.1704 107.908 30.4304C107.168 30.6704 106.348 30.7904 105.448 30.7904Z" fill="black"/>
<path fill-rule="evenodd" clip-rule="evenodd" d="M7.5313 7.72241C-1.3953 12.3481 -2.8144 24.6993 5.58575 25.4385C12.933 26.0822 26.2085 17.2838 25.7049 11.5613C24.7207 9.05767 23.0956 8.34235 20.8983 8.46157C9.82017 26.726 -7.02593 19.0721 7.5313 7.72241Z" fill="url(#paint0_linear_1102_1690)"/>
<path fill-rule="evenodd" clip-rule="evenodd" d="M3.22852 29.7065C12.0178 38.9818 31.2672 29.1104 28.7723 16.9023C26.5063 21.0273 21.9286 24.4132 18.4724 26.3445C14.65 28.5143 9.61447 30.4457 5.19695 30.0403C4.53317 29.9927 3.8694 29.8734 3.22852 29.7065Z" fill="url(#paint1_linear_1102_1690)"/>
<path fill-rule="evenodd" clip-rule="evenodd" d="M12.7266 35.9774C18.4716 37.6226 24.4227 34.7375 26.8947 29.6826C24.8576 31.757 22.3627 33.3784 19.7763 34.4514C17.5103 35.3575 15.107 35.9059 12.7266 35.9774Z" fill="url(#paint2_linear_1102_1690)"/>
<path d="M14.5249 6.25846L13.539 11.2557L13.484 11.301L12.8362 11.5569L12.5148 6.82323L9.75921 7.62515L9.25559 9.24989L8.78503 9.43913L8.51966 7.55522L7.46589 6.02317L7.93644 5.83394L9.36404 6.62171L11.9252 5.24603L9.02481 1.60524L9.72763 1.30404L13.7651 4.24626C16.5032 2.98272 17.8637 3.74645 17.8637 3.74645C17.8637 3.74645 17.3664 5.22711 14.5249 6.25846Z" fill="url(#paint3_linear_1102_1690)"/>
<defs>
<linearGradient id="paint0_linear_1102_1690" x1="4.43528" y1="22.3347" x2="8.37271" y2="10.3834" gradientUnits="userSpaceOnUse">
<stop stop-color="#D91334"/>
<stop offset="1" stop-color="#FB4927"/>
</linearGradient>
<linearGradient id="paint1_linear_1102_1690" x1="7.67175" y1="30.4548" x2="11.1006" y2="19.2131" gradientUnits="userSpaceOnUse">
<stop stop-color="#D91334"/>
<stop offset="1" stop-color="#FB4927"/>
</linearGradient>
<linearGradient id="paint2_linear_1102_1690" x1="15.1699" y1="35.2463" x2="16.2619" y2="30.4506" gradientUnits="userSpaceOnUse">
<stop stop-color="#D91334"/>
<stop offset="1" stop-color="#FB4927"/>
</linearGradient>
<linearGradient id="paint3_linear_1102_1690" x1="10.0441" y1="10.1355" x2="11.9744" y2="3.2373" gradientUnits="userSpaceOnUse">
<stop stop-color="#D91334"/>
<stop offset="1" stop-color="#FB4927"/>
</linearGradient>
</defs>
</svg>
