<svg width="117" height="38" viewBox="0 0 117 38" fill="none" xmlns="http://www.w3.org/2000/svg">
<path d="M44.57 31.3599C42.89 31.3599 41.42 30.9799 40.16 30.2199C38.9 29.4599 37.92 28.4299 37.22 27.1299C36.52 25.8299 36.17 24.3899 36.17 22.8099C36.17 21.1699 36.52 19.7199 37.22 18.4599C37.94 17.1799 38.91 16.1699 40.13 15.4299C41.37 14.6899 42.75 14.3199 44.27 14.3199C45.55 14.3199 46.67 14.5299 47.63 14.9499C48.61 15.3699 49.44 15.9499 50.12 16.6899C50.8 17.4299 51.32 18.2799 51.68 19.2399C52.04 20.1799 52.22 21.1999 52.22 22.2999C52.22 22.5799 52.2 22.8699 52.16 23.1699C52.14 23.4699 52.09 23.7299 52.01 23.9499H39.41V20.9499H49.79L47.93 22.3599C48.11 21.4399 48.06 20.6199 47.78 19.8999C47.52 19.1799 47.08 18.6099 46.46 18.1899C45.86 17.7699 45.13 17.5599 44.27 17.5599C43.45 17.5599 42.72 17.7699 42.08 18.1899C41.44 18.5899 40.95 19.1899 40.61 19.9899C40.29 20.7699 40.17 21.7199 40.25 22.8399C40.17 23.8399 40.3 24.7299 40.64 25.5099C41 26.2699 41.52 26.8599 42.2 27.2799C42.9 27.6999 43.7 27.9099 44.6 27.9099C45.5 27.9099 46.26 27.7199 46.88 27.3399C47.52 26.9599 48.02 26.4499 48.38 25.8099L51.56 27.3699C51.24 28.1499 50.74 28.8399 50.06 29.4399C49.38 30.0399 48.57 30.5099 47.63 30.8499C46.71 31.1899 45.69 31.3599 44.57 31.3599ZM55.8591 30.9999V26.7999H59.8191V30.9999H55.8591Z" fill="#787B84"/>
<path d="M69.057 30.9999L62.637 14.6799H66.927L71.577 27.5199H69.987L74.667 14.6799H78.957L72.537 30.9999H69.057ZM79.9292 30.9999V14.6799H83.8592V30.9999H79.9292ZM79.9292 12.8499V8.64988H83.8592V12.8499H79.9292ZM92.4978 31.3599C90.7578 31.3599 89.2378 30.9499 87.9378 30.1299C86.6578 29.2899 85.7778 28.1599 85.2978 26.7399L88.2378 25.3299C88.6578 26.2499 89.2378 26.9699 89.9778 27.4899C90.7378 28.0099 91.5778 28.2699 92.4978 28.2699C93.2178 28.2699 93.7878 28.1099 94.2078 27.7899C94.6278 27.4699 94.8378 27.0499 94.8378 26.5299C94.8378 26.2099 94.7478 25.9499 94.5678 25.7499C94.4078 25.5299 94.1778 25.3499 93.8778 25.2099C93.5978 25.0499 93.2878 24.9199 92.9478 24.8199L90.2778 24.0699C88.8978 23.6699 87.8478 23.0599 87.1278 22.2399C86.4278 21.4199 86.0778 20.4499 86.0778 19.3299C86.0778 18.3299 86.3278 17.4599 86.8278 16.7199C87.3478 15.9599 88.0578 15.3699 88.9578 14.9499C89.8778 14.5299 90.9278 14.3199 92.1078 14.3199C93.6478 14.3199 95.0078 14.6899 96.1878 15.4299C97.3678 16.1699 98.2078 17.2099 98.7078 18.5499L95.7078 19.9599C95.4278 19.2199 94.9578 18.6299 94.2978 18.1899C93.6378 17.7499 92.8978 17.5299 92.0778 17.5299C91.4178 17.5299 90.8978 17.6799 90.5178 17.9799C90.1378 18.2799 89.9478 18.6699 89.9478 19.1499C89.9478 19.4499 90.0278 19.7099 90.1878 19.9299C90.3478 20.1499 90.5678 20.3299 90.8478 20.4699C91.1478 20.6099 91.4878 20.7399 91.8678 20.8599L94.4778 21.6399C95.8178 22.0399 96.8478 22.6399 97.5678 23.4399C98.3078 24.2399 98.6778 25.2199 98.6778 26.3799C98.6778 27.3599 98.4178 28.2299 97.8978 28.9899C97.3778 29.7299 96.6578 30.3099 95.7378 30.7299C94.8178 31.1499 93.7378 31.3599 92.4978 31.3599ZM105.448 31.3599C104.308 31.3599 103.318 31.1699 102.478 30.7899C101.638 30.4099 100.988 29.8699 100.528 29.1699C100.068 28.4499 99.838 27.6199 99.838 26.6799C99.838 25.7799 100.038 24.9799 100.438 24.2799C100.838 23.5599 101.458 22.9599 102.298 22.4799C103.138 21.9999 104.198 21.6599 105.478 21.4599L110.818 20.5899V23.5899L106.228 24.3699C105.448 24.5099 104.868 24.7599 104.488 25.1199C104.108 25.4799 103.918 25.9499 103.918 26.5299C103.918 27.0899 104.128 27.5399 104.548 27.8799C104.988 28.1999 105.528 28.3599 106.168 28.3599C106.988 28.3599 107.708 28.1899 108.328 27.8499C108.968 27.4899 109.458 26.9999 109.798 26.3799C110.158 25.7599 110.338 25.0799 110.338 24.3399V20.1399C110.338 19.4399 110.058 18.8599 109.498 18.3999C108.958 17.9199 108.238 17.6799 107.338 17.6799C106.498 17.6799 105.748 17.9099 105.088 18.3699C104.448 18.8099 103.978 19.3999 103.678 20.1399L100.468 18.5799C100.788 17.7199 101.288 16.9799 101.968 16.3599C102.668 15.7199 103.488 15.2199 104.428 14.8599C105.368 14.4999 106.388 14.3199 107.488 14.3199C108.828 14.3199 110.008 14.5699 111.028 15.0699C112.048 15.5499 112.838 16.2299 113.398 17.1099C113.978 17.9699 114.268 18.9799 114.268 20.1399V30.9999H110.548V28.2099L111.388 28.1499C110.968 28.8499 110.468 29.4399 109.888 29.9199C109.308 30.3799 108.648 30.7399 107.908 30.9999C107.168 31.2399 106.348 31.3599 105.448 31.3599Z" fill="#0F172A"/>
<path fill-rule="evenodd" clip-rule="evenodd" d="M7.5313 8.29187C-1.3953 12.9176 -2.8144 25.2688 5.58575 26.0079C12.933 26.6517 26.2085 17.8533 25.7049 12.1307C24.7207 9.62713 23.0956 8.91181 20.8983 9.03103C9.82017 27.2955 -7.02593 19.6416 7.5313 8.29187Z" fill="#032A3E"/>
<path fill-rule="evenodd" clip-rule="evenodd" d="M3.22852 30.2759C12.0178 39.5512 31.2672 29.6798 28.7723 17.4717C26.5063 21.5967 21.9286 24.9825 18.4724 26.9139C14.65 29.0837 9.61447 31.015 5.19695 30.6097C4.53317 30.562 3.8694 30.4428 3.22852 30.2759Z" fill="#00CC99"/>
<path fill-rule="evenodd" clip-rule="evenodd" d="M12.7266 36.5469C18.4716 38.1921 24.4227 35.307 26.8947 30.2521C24.8576 32.3265 22.3627 33.9479 19.7763 35.0209C17.5103 35.9269 15.107 36.4753 12.7266 36.5469Z" fill="#00CC99"/>
<path d="M14.5249 6.82804L13.539 11.8252L13.484 11.8706L12.8362 12.1264L12.5148 7.39281L9.75921 8.19473L9.25559 9.81947L8.78503 10.0087L8.51966 8.1248L7.46589 6.59275L7.93644 6.40352L9.36404 7.19129L11.9252 5.81561L9.02481 2.17482L9.72763 1.87362L13.7651 4.81584C16.5032 3.5523 17.8637 4.31603 17.8637 4.31603C17.8637 4.31603 17.3664 5.79669 14.5249 6.82804Z" fill="#00CC99"/>
</svg>
